<svg xmlns="http://www.w3.org/2000/svg" width="1280" height="860" viewBox="0 0 1280 860" role="img" aria-labelledby="title desc">
  <title id="title">cc-iasd standard role sequence overview</title>
  <desc id="desc">Planning Lead and Execution Manager are parallel entry points. Planning Lead prepares an Execution Entry Packet. Execution Manager starts separately and orchestrates execution roles.</desc>
  <style>
    .bg { fill: #ffffff; }
    .title { font: 700 26px system-ui, -apple-system, BlinkMacSystemFont, "Segoe UI", sans-serif; fill: #17202a; }
    .label { font: 600 15px system-ui, -apple-system, BlinkMacSystemFont, "Segoe UI", sans-serif; fill: #17202a; }
    .small { font: 13px system-ui, -apple-system, BlinkMacSystemFont, "Segoe UI", sans-serif; fill: #273746; }
    .note { font: 12px system-ui, -apple-system, BlinkMacSystemFont, "Segoe UI", sans-serif; fill: #566573; }
    .lane { fill: #f7f9fb; stroke: #d5dce4; stroke-width: 1; }
    .planning { fill: #edf5ff; stroke: #8bb7e8; }
    .execution { fill: #eef8f1; stroke: #89c89a; }
    .evidence { fill: #fff7e8; stroke: #e1b76b; }
    .src { fill: #f4efff; stroke: #b39ddb; }
    .arrow { stroke: #34495e; stroke-width: 2; fill: none; marker-end: url(#arrow); }
    .dash { stroke: #7f8c8d; stroke-width: 2; fill: none; stroke-dasharray: 6 5; marker-end: url(#arrow); }
  </style>
  <defs>
    <marker id="arrow" viewBox="0 0 10 10" refX="9" refY="5" markerWidth="7" markerHeight="7" orient="auto-start-reverse">
      <path d="M 0 0 L 10 5 L 0 10 z" fill="#34495e"/>
    </marker>
  </defs>
  <rect class="bg" width="1280" height="860"/>
  <text class="title" x="40" y="48">cc-iasd Standard Flow: Parallel Planning and Execution Entry Points</text>
  <text class="note" x="40" y="75">Execution Manager is not a nested subagent of Planning Lead. A human or runtime owner starts execution separately with an Execution Entry Packet.</text>

  <rect class="lane" x="40" y="110" width="180" height="690" rx="8"/>
  <rect class="planning" x="250" y="110" width="300" height="690" rx="8"/>
  <rect class="execution" x="585" y="110" width="330" height="690" rx="8"/>
  <rect class="src" x="950" y="110" width="125" height="690" rx="8"/>
  <rect class="evidence" x="1100" y="110" width="140" height="690" rx="8"/>

  <text class="label" x="90" y="140">Human</text>
  <text class="label" x="335" y="140">Planning Entry</text>
  <text class="label" x="690" y="140">Execution Entry</text>
  <text class="label" x="990" y="140">src/</text>
  <text class="label" x="1125" y="140">Artifacts</text>

  <text class="small" x="70" y="190">Governed</text>
  <text class="small" x="70" y="208">development</text>
  <text class="small" x="70" y="226">request</text>
  <path class="arrow" d="M 220 205 H 250"/>

  <text class="small" x="280" y="190">Planning Lead</text>
  <text class="note" x="280" y="211">doctor / view current</text>
  <text class="note" x="280" y="229">designer orchestration</text>
  <text class="note" x="280" y="247">design review routing</text>
  <path class="dash" d="M 550 220 H 1100"/>
  <text class="note" x="1120" y="218">product/ ops/</text>

  <rect class="planning" x="285" y="285" width="230" height="88" rx="6"/>
  <text class="small" x="305" y="313">Ideal / Feature / Spec</text>
  <text class="note" x="305" y="334">Ideal Interviewer, Designers,</text>
  <text class="note" x="305" y="352">Design Reviewer are launched here</text>

  <rect class="planning" x="285" y="420" width="230" height="86" rx="6"/>
  <text class="small" x="305" y="448">Execution Entry Packet</text>
  <text class="note" x="305" y="469">reviewed feature, roadmap,</text>
  <text class="note" x="305" y="487">spec, tasks, constraints</text>
  <path class="arrow" d="M 515 462 H 585"/>

  <text class="small" x="610" y="448">Execution Manager</text>
  <text class="note" x="610" y="469">started as a separate runtime</text>
  <text class="note" x="610" y="487">campaign / run orchestration</text>

  <rect class="execution" x="625" y="535" width="250" height="118" rx="6"/>
  <text class="small" x="645" y="563">Execution roles</text>
  <text class="note" x="645" y="584">Worker implements selected run tasks</text>
  <text class="note" x="645" y="603">Code Quality Auditor reviews code</text>
  <text class="note" x="645" y="622">Devil's Advocate reviews launch/completion</text>
  <text class="note" x="645" y="641">Compliance Auditor checks final evidence</text>
  <path class="arrow" d="M 875 594 H 950"/>
  <text class="note" x="965" y="594">implementation</text>

  <path class="dash" d="M 750 653 V 725 H 1100"/>
  <text class="note" x="1118" y="725">reviews / logs</text>
  <text class="note" x="1118" y="743">reports / escalation</text>

  <rect class="execution" x="625" y="700" width="250" height="64" rx="6"/>
  <text class="small" x="645" y="728">Execution Handoff / Feedback</text>
  <text class="note" x="645" y="749">completion, blockers, planning-feedback id</text>
  <path class="dash" d="M 625 732 H 550"/>

  <text class="note" x="70" y="830">Lifecycle maintenance is explicit: product outdate and ops archive are command-managed and not part of normal artifact authoring.</text>
</svg>
